<?xml version="1.0" standalone="no"?>
<!DOCTYPE svg PUBLIC "-//W3C//DTD SVG 20010904//EN"
 "http://www.w3.org/TR/2001/REC-SVG-20010904/DTD/svg10.dtd">
<svg version="1.0" xmlns="http://www.w3.org/2000/svg"
 width="1920.000000pt" height="1080.000000pt" viewBox="0 0 1920.000000 1080.000000"
 preserveAspectRatio="xMidYMid meet">

<g transform="translate(0.000000,1080.000000) scale(0.100000,-0.100000)"
fill="#000000" stroke="none">
<path d="M0 5400 l0 -5400 9600 0 9600 0 0 5400 0 5400 -9600 0 -9600 0 0
-5400z m11150 5280 c272 -6 731 -15 1020 -21 515 -10 846 -18 1505 -39 182 -5
461 -13 620 -16 160 -4 295 -10 300 -15 15 -11 812 -30 1690 -39 790 -8 821
-10 1085 -61 519 -99 916 -326 1168 -667 203 -274 326 -617 389 -1082 17 -128
18 -293 18 -3340 0 -3047 -1 -3212 -18 -3340 -63 -465 -186 -808 -389 -1082
-252 -341 -649 -568 -1168 -667 -264 -51 -295 -53 -1080 -61 -876 -9 -1670
-28 -1685 -39 -5 -5 -138 -11 -295 -15 -157 -3 -433 -10 -615 -16 -589 -19
-970 -29 -1500 -39 -286 -6 -740 -15 -1010 -21 -632 -13 -2528 -13 -3160 0
-269 6 -724 15 -1010 21 -530 10 -911 20 -1500 39 -181 6 -458 13 -615 16
-157 4 -290 10 -295 15 -15 11 -811 30 -1690 39 -790 8 -821 10 -1085 61 -512
98 -905 320 -1155 650 -213 282 -337 623 -402 1099 -17 128 -18 293 -18 3340
0 3047 1 3212 18 3340 63 465 186 808 389 1082 252 341 649 568 1168 667 265
51 294 53 1090 61 881 9 1680 28 1695 39 5 5 141 11 300 15 160 3 439 11 620
16 665 21 982 29 1530 40 308 6 722 15 920 19 546 12 2605 13 3165 1z"/>
<path d="M9065 7268 c-22 -5 -77 -8 -122 -8 -132 1 -218 -48 -262 -151 -25
-56 -38 -183 -23 -219 9 -20 11 -8 11 60 1 103 28 170 95 236 47 46 91 61 152
51 20 -3 32 -2 29 3 -3 6 1 7 9 4 23 -9 -35 -54 -68 -54 -31 0 -102 -27 -93
-36 3 -3 19 2 36 10 16 9 43 16 58 15 27 -1 26 -1 -6 -9 -44 -10 -79 -29 -85
-47 -4 -10 -1 -11 14 -3 10 5 22 15 25 20 3 6 16 10 28 10 18 -1 15 -5 -15
-21 -23 -11 -46 -35 -57 -57 -26 -51 -46 -161 -32 -175 8 -8 11 -4 11 14 0 28
29 131 39 139 3 3 6 11 6 19 0 8 15 22 33 32 17 10 32 14 32 9 0 -6 -4 -10
-10 -10 -5 0 -7 -6 -5 -13 3 -7 -4 -30 -15 -52 -11 -21 -20 -46 -20 -55 0 -12
-2 -12 -9 -2 -6 10 -10 7 -15 -11 -3 -14 -9 -33 -13 -44 -4 -13 0 -11 16 7
l22 25 -5 -45 c-3 -31 -2 -39 4 -25 5 11 9 36 10 55 1 19 5 44 9 55 5 12 9
-34 9 -109 0 -115 -2 -127 -14 -105 -7 13 -13 33 -14 43 0 14 -3 17 -10 10 -7
-7 -6 -33 4 -81 8 -38 13 -81 10 -94 -4 -21 -3 -22 5 -4 9 18 10 17 10 -7 1
-24 -3 -28 -26 -28 -82 0 -396 -102 -570 -185 -61 -29 -114 -51 -117 -47 -3 3
-6 0 -6 -6 0 -7 -7 -12 -15 -12 -8 0 -15 -3 -15 -8 0 -4 -17 -16 -37 -27 -21
-11 -85 -56 -143 -99 -58 -43 -97 -70 -87 -59 31 35 18 38 -18 3 -37 -35 -47
-31 -17 7 9 12 26 24 37 26 11 2 30 8 41 15 23 12 40 42 24 42 -6 0 -10 -7
-10 -15 0 -8 -4 -15 -9 -15 -5 0 -8 11 -7 24 0 13 5 24 10 23 4 -1 10 6 11 16
3 15 -1 14 -28 -5 -54 -38 -226 -209 -290 -288 -95 -117 -204 -290 -212 -335
-3 -22 -27 -87 -52 -145 -26 -58 -47 -119 -47 -137 0 -17 -4 -29 -8 -27 -4 3
-8 -13 -8 -35 l0 -41 43 0 c58 1 79 15 125 85 22 33 79 98 126 145 l87 85 -35
-76 c-43 -93 -58 -157 -50 -209 7 -40 24 -56 24 -22 0 9 4 23 9 31 6 8 8 -11
6 -50 -2 -43 -12 -83 -30 -123 -25 -53 -26 -61 -15 -97 17 -50 40 -60 40 -16
0 24 -3 28 -10 17 -15 -24 -12 26 5 90 9 30 18 69 20 86 3 17 9 44 15 58 5 15
10 41 10 58 0 41 18 99 40 128 18 24 18 22 18 -99 0 -87 3 -126 12 -131 9 -6
9 -9 -1 -13 -10 -4 -10 -6 -1 -6 14 -1 17 -41 2 -41 -5 0 -10 -4 -10 -10 0
-15 30 -12 31 3 1 6 1 30 1 52 0 39 0 40 6 7 4 -18 11 -34 15 -35 11 -3 30 31
23 41 -3 5 -1 22 4 38 l8 29 1 -32 c1 -17 5 -34 10 -37 5 -3 7 -16 4 -29 -5
-21 -5 -22 9 -2 8 11 13 40 13 65 -1 25 1 54 6 65 8 22 8 21 13 -44 0 -11 4
-22 7 -25 3 -4 9 69 12 161 6 204 23 266 105 397 52 83 62 93 151 151 190 125
411 220 566 245 39 6 93 16 120 22 90 19 351 22 461 5 274 -44 471 -138 653
-312 95 -91 146 -159 220 -292 139 -252 183 -433 151 -623 -6 -30 -14 -100
-20 -154 -7 -70 -18 -117 -36 -155 -14 -31 -32 -77 -40 -103 -8 -27 -17 -48
-20 -48 -4 0 -4 7 0 15 3 8 3 15 1 15 -7 0 -55 -102 -55 -116 0 -7 -26 -48
-59 -92 -32 -43 -64 -89 -70 -101 -7 -12 -16 -19 -22 -16 -5 4 -14 3 -20 -1
-8 -5 -8 -8 0 -13 7 -5 2 -16 -16 -32 -20 -18 -23 -19 -13 -4 14 18 14 19 -2
6 -10 -7 -16 -17 -13 -21 6 -10 -162 -159 -193 -171 -13 -5 -22 -16 -20 -25 2
-9 -4 -19 -12 -21 -13 -4 -13 -3 0 6 37 26 -5 7 -73 -33 -85 -51 -160 -78
-272 -102 -44 -9 -84 -20 -89 -25 -15 -14 63 -10 122 5 28 8 50 10 47 6 -13
-22 -203 -64 -221 -50 -7 7 -22 4 -44 -6 -27 -14 -43 -15 -104 -6 -108 17
-135 19 -130 10 3 -4 24 -9 47 -9 23 -1 56 -5 72 -9 l30 -8 -30 -1 c-28 -1
-165 12 -260 24 l-40 5 35 -15 35 -15 -41 6 c-24 3 -45 1 -48 -5 -6 -10 21
-19 114 -39 39 -9 41 -10 14 -11 -34 -1 -191 42 -233 63 -14 8 -49 24 -78 36
-29 13 -50 27 -47 32 3 5 0 8 -8 6 -21 -5 -136 66 -229 141 -129 104 -275 275
-371 436 -42 69 -130 246 -147 295 -20 58 -21 27 -1 -50 10 -41 21 -84 25 -95
3 -11 -3 -4 -14 15 -27 47 -26 39 8 -63 30 -88 105 -241 142 -287 26 -33 16
-10 -39 97 -57 112 -53 117 9 11 29 -48 83 -126 120 -174 38 -48 69 -91 69
-96 0 -4 4 -8 9 -8 11 0 131 -110 129 -119 0 -3 1 -9 2 -13 1 -5 3 -13 4 -20
0 -6 7 -13 14 -16 9 -3 10 2 2 23 l-10 26 40 -32 c22 -18 37 -35 35 -40 -3 -4
0 -11 6 -15 8 -4 9 -3 5 4 -4 7 -5 12 -3 12 5 0 169 -96 182 -107 15 -12 129
-62 230 -100 50 -18 77 -31 60 -27 -16 3 -48 8 -70 9 -44 4 -192 64 -160 65
17 1 16 3 -8 16 -15 8 -32 12 -37 9 -5 -3 -28 4 -51 15 -70 36 -55 14 22 -30
112 -66 190 -98 316 -131 352 -90 718 -49 1048 119 448 229 752 674 815 1192
50 415 -104 900 -372 1174 -38 39 -66 64 -62 56 4 -8 -17 8 -45 35 -29 28 -57
60 -62 73 -5 12 -20 27 -34 32 -34 13 -135 90 -135 103 0 6 -3 7 -6 4 -4 -4
-19 2 -33 12 -34 24 -148 78 -184 86 -15 4 -31 13 -35 21 -10 18 -121 58 -205
75 -48 9 -66 17 -63 26 6 15 -10 18 -19 3 -4 -6 -14 -9 -23 -6 -10 2 -39 7
-67 11 -47 6 -48 8 -30 22 46 34 71 40 40 10 -13 -13 -13 -16 1 -21 8 -3 12
-2 9 4 -3 6 5 10 19 10 14 0 26 4 26 9 0 5 7 12 16 15 13 5 14 4 6 -7 -13 -15
-6 -27 15 -27 10 0 12 7 8 19 -5 15 1 24 24 35 35 19 41 19 41 6 0 -5 -8 -10
-17 -10 -17 -1 -17 -1 -1 -11 9 -5 15 -16 12 -23 -6 -16 0 -21 40 -30 24 -6
26 -5 15 7 -8 8 -21 16 -29 20 -10 4 -9 6 6 6 12 1 32 -9 45 -21 29 -27 94
-36 85 -13 -3 8 0 15 6 15 28 0 178 -52 173 -59 -2 -5 5 -11 17 -14 12 -4 25
-1 29 4 5 8 9 8 13 0 4 -6 1 -11 -6 -11 -9 0 -9 -3 2 -10 17 -12 -26 -4 -69
12 -13 5 -26 6 -29 3 -9 -8 82 -45 113 -45 17 0 53 -11 80 -25 64 -31 94 -32
35 0 -58 31 -44 32 18 1 26 -13 59 -26 74 -30 16 -3 27 -11 25 -17 -1 -5 23
-23 53 -39 30 -16 61 -34 68 -40 6 -6 12 -8 12 -5 0 20 280 -164 302 -198 4
-6 10 -8 14 -4 4 4 -1 17 -12 30 -10 13 -7 10 9 -5 15 -16 27 -35 27 -42 0 -8
7 -16 15 -20 13 -4 14 -2 5 14 -22 42 16 19 77 -46 64 -68 87 -78 33 -14 -17
19 -30 42 -30 52 0 11 -7 18 -20 18 -22 0 -90 56 -90 74 0 14 -31 46 -44 46
-4 0 -4 -5 0 -11 4 -7 -7 -4 -24 7 -34 20 -37 32 -3 14 36 -19 23 -2 -23 30
-46 31 -62 37 -51 20 3 -5 2 -10 -4 -10 -16 0 -22 18 -9 23 7 2 -1 11 -19 20
-17 9 -38 14 -47 11 -8 -3 -19 3 -26 15 -17 32 17 27 71 -9 24 -16 48 -30 52
-30 4 0 42 -28 85 -63 42 -35 79 -63 82 -63 8 1 130 -118 130 -126 0 -4 -8 -4
-17 -1 -12 5 -5 -10 19 -43 95 -125 138 -188 138 -201 0 -8 -4 -11 -10 -8 -5
3 -10 1 -10 -5 0 -7 -16 11 -35 40 -19 29 -35 55 -35 59 0 12 -101 121 -123
133 -21 11 -21 10 -7 -8 8 -10 25 -27 37 -37 34 -28 165 -243 205 -337 20 -47
44 -121 53 -165 10 -44 23 -83 30 -87 8 -5 13 -41 15 -100 5 -148 5 -152 13
-164 4 -7 2 -26 -4 -44 -8 -22 -8 -34 -1 -39 24 -15 -21 -361 -68 -521 -11
-35 -17 -66 -15 -69 3 -2 5 2 5 10 0 12 2 11 11 -1 8 -11 9 -9 3 10 -3 14 -3
21 2 17 5 -4 14 27 21 70 8 42 19 81 26 85 7 4 12 30 13 60 1 77 26 270 34
258 4 -6 12 21 19 61 9 49 16 68 23 61 20 -20 6 -265 -17 -292 -7 -8 -18 -39
-24 -68 -14 -66 -14 -62 4 -56 10 4 15 21 15 53 0 30 3 41 9 32 6 -10 11 -6
19 15 7 19 11 23 11 11 1 -10 5 -16 9 -13 5 3 10 33 11 67 1 34 4 67 8 72 3 5
5 46 4 90 0 45 2 90 6 102 6 18 8 17 14 -10 5 -16 6 22 3 85 -3 63 -8 123 -10
133 -10 32 -25 6 -18 -30 5 -25 3 -38 -7 -45 -11 -7 -11 -11 -1 -15 7 -3 12
-24 11 -56 l-1 -52 -14 60 c-8 35 -12 83 -9 115 6 61 -17 202 -40 247 -8 15
-15 37 -15 48 0 11 -13 48 -30 83 -16 34 -27 70 -24 80 5 13 4 14 -4 3 -13
-19 -26 4 -14 26 8 14 12 12 27 -17 27 -52 54 -135 88 -267 17 -68 35 -123 40
-123 5 0 7 13 4 30 -4 16 -2 32 3 35 6 4 10 -17 11 -52 0 -32 6 -92 14 -133
21 -107 27 -209 15 -249 -9 -33 -7 -51 6 -38 3 3 9 43 12 89 l6 83 12 -55 12
-55 -4 70 c-12 217 -12 239 -4 215 4 -14 9 -38 9 -55 1 -16 5 -36 9 -42 4 -7
7 18 6 55 l-3 67 10 -70 c14 -106 19 -110 14 -10 -5 93 -31 264 -46 300 -5 13
-7 1 -4 -35 l5 -55 -15 50 c-17 60 -20 98 -5 75 8 -12 10 -12 10 5 0 17 2 18
11 5 7 -11 9 -6 4 20 -12 64 -37 134 -81 223 -24 48 -42 87 -40 87 5 0 66
-106 84 -145 65 -143 99 -277 132 -520 l18 -130 -4 165 c-3 136 -8 182 -29
263 -65 252 -168 460 -315 637 l-51 60 98 -3 c138 -5 391 9 503 28 116 20 126
23 113 36 -6 6 -25 4 -54 -7 -26 -9 -72 -16 -112 -16 -37 1 -65 -3 -63 -7 6
-9 -112 -21 -201 -21 -29 0 -53 5 -53 10 0 6 -14 10 -31 10 -20 0 -28 4 -23
12 4 7 3 8 -4 4 -7 -4 -28 -4 -48 0 -68 13 -12 24 124 24 106 0 134 -3 138
-14 3 -8 11 -13 18 -10 11 4 44 9 84 13 7 0 10 6 6 12 -3 6 -15 8 -27 5 -29
-7 -76 4 -71 18 3 8 -31 11 -123 9 -71 -1 -141 1 -158 4 -27 5 -28 7 -10 14
14 5 3 8 -35 8 -30 1 -86 3 -125 6 -48 4 -64 2 -50 -4 19 -9 19 -10 -2 -10
-12 -1 -28 7 -35 18 -7 10 -23 21 -36 25 -13 5 -21 10 -18 13 2 3 28 -3 56
-12 36 -12 73 -16 121 -13 38 2 70 1 71 -2 2 -3 41 -2 88 1 47 3 69 7 50 8
-19 2 -45 2 -57 1 -13 -1 -23 3 -23 9 0 5 10 11 23 13 12 2 -7 5 -43 6 -36 2
-90 6 -120 11 l-55 9 55 2 55 3 -45 7 -45 7 50 3 c48 2 -13 14 -235 44 l-45 6
40 -15 40 -14 -40 5 c-47 7 -57 12 -50 25 4 5 0 9 -7 9 -10 0 -10 2 0 9 9 6
-10 14 -60 26 -73 18 -116 34 -90 35 7 0 41 -6 75 -14 173 -39 463 -74 451
-55 -2 4 -42 10 -89 14 -47 4 -82 11 -79 16 3 6 -13 7 -38 4 -24 -3 -35 -2
-25 3 12 5 -16 13 -85 26 -57 10 -158 34 -225 52 -68 18 -130 31 -140 27 -9
-4 -14 -2 -10 3 3 6 -46 27 -111 48 -64 21 -128 45 -142 53 l-25 14 30 -6 c17
-4 62 -14 100 -23 110 -24 293 -21 383 6 74 23 98 40 40 28 -56 -12 -157 -17
-128 -7 23 8 21 9 -15 11 l-40 2 50 9 c101 16 113 20 135 39 25 22 45 27 34 9
-4 -7 7 -3 25 7 17 10 27 20 21 22 -7 3 -5 11 6 23 24 26 6 24 -23 -3 -17 -16
-26 -19 -34 -11 -7 7 -22 8 -42 2 -18 -5 -45 -9 -62 -8 l-30 1 36 12 c20 6 43
17 52 24 9 8 22 10 28 6 8 -4 9 -3 5 5 -4 6 0 14 8 17 21 8 20 24 -1 24 -12 0
-8 7 14 23 18 12 33 26 33 30 0 5 -12 -1 -26 -12 -72 -57 -272 -79 -414 -45
-36 8 -79 14 -96 14 -17 0 -50 8 -75 19 -24 10 -116 36 -204 56 -155 35 -260
60 -375 90 -186 48 -312 66 -375 53z m52 -14 c-3 -3 -12 -4 -19 -1 -8 3 -5 6
6 6 11 1 17 -2 13 -5z m98 -3 l40 -9 -35 0 c-19 0 -48 4 -65 8 -27 7 -28 8 -5
8 14 1 43 -3 65 -7z m140 -30 c39 -11 63 -19 55 -20 -8 0 -46 8 -85 18 -38 11
-63 19 -55 20 8 0 47 -8 85 -18z m102 -27 c-3 -3 -12 -4 -19 -1 -8 3 -5 6 6 6
11 1 17 -2 13 -5z m120 -30 c-3 -3 -12 -4 -19 -1 -8 3 -5 6 6 6 11 1 17 -2 13
-5z m40 -10 c-3 -3 -12 -4 -19 -1 -8 3 -5 6 6 6 11 1 17 -2 13 -5z m907 -141
c-62 -22 -154 -33 -219 -25 -58 7 -57 7 50 13 61 4 128 14 150 22 22 8 44 12
49 9 5 -2 -9 -11 -30 -19z m106 -67 c0 -2 -7 -7 -16 -10 -8 -3 -12 -2 -9 4 6
10 25 14 25 6z m-70 -10 c0 -2 -7 -7 -16 -10 -8 -3 -12 -2 -9 4 6 10 25 14 25
6z m-77 -23 c-7 -2 -21 -2 -30 0 -10 3 -4 5 12 5 17 0 24 -2 18 -5z m-195 -50
c-10 -2 -28 -2 -40 0 -13 2 -5 4 17 4 22 1 32 -1 23 -4z m-743 -103 c-3 -5
-10 -10 -16 -10 -5 0 -9 5 -9 10 0 6 7 10 16 10 8 0 12 -4 9 -10z m20 -40 c3
-5 1 -10 -4 -10 -6 0 -11 5 -11 10 0 6 2 10 4 10 3 0 8 -4 11 -10z m225 -22
c10 -6 7 -7 -10 -2 -14 3 -32 11 -40 16 -10 6 -7 7 10 2 14 -3 32 -11 40 -16z
m-145 2 c8 -13 -5 -13 -25 0 -13 8 -13 10 2 10 9 0 20 -4 23 -10z m136 -35
c36 -19 48 -38 12 -20 -16 8 -49 23 -75 34 -27 11 -48 22 -48 24 0 6 76 -20
111 -38z m-221 14 c18 -10 4 -11 -39 -3 -17 4 -28 11 -25 16 6 9 36 3 64 -13z
m60 -15 c0 -2 -9 -4 -20 -4 -11 0 -20 4 -20 9 0 5 9 7 20 4 11 -3 20 -7 20 -9z
m245 -32 c-3 -3 -11 0 -18 7 -9 10 -8 11 6 5 10 -3 15 -9 12 -12z m-18 -18
c-3 -3 -12 -4 -19 -1 -8 3 -5 6 6 6 11 1 17 -2 13 -5z m153 -34 c0 -5 -6 -10
-14 -10 -8 0 -18 5 -21 10 -3 6 3 10 14 10 12 0 21 -4 21 -10z m-83 -18 c-14
-3 -16 -7 -6 -18 18 -22 -5 -17 -32 7 l-24 20 24 -7 c15 -4 21 -2 17 4 -4 6 2
8 16 4 19 -5 20 -7 5 -10z m143 -52 c0 -5 -4 -10 -10 -10 -5 0 -10 5 -10 10 0
6 5 10 10 10 6 0 10 -4 10 -10z m798 -27 c-10 -2 -26 -2 -35 0 -10 3 -2 5 17
5 19 0 27 -2 18 -5z m49 -9 c-3 -3 -12 -4 -19 -1 -8 3 -5 6 6 6 11 1 17 -2 13
-5z m-572 -42 c-3 -3 -11 0 -18 7 -9 10 -8 11 6 5 10 -3 15 -9 12 -12z m-188
2 c-3 -3 -12 -4 -19 -1 -8 3 -5 6 6 6 11 1 17 -2 13 -5z m38 -24 c3 -5 1 -10
-4 -10 -6 0 -11 5 -11 10 0 6 2 10 4 10 3 0 8 -4 11 -10z m331 -21 c4 -8 1 -8
-14 0 -12 6 -24 16 -28 22 -4 8 -1 8 14 0 12 -6 24 -16 28 -22z m423 20 l46
-1 -35 -9 c-43 -10 -147 0 -128 13 7 5 26 6 42 3 16 -3 49 -5 75 -6z m-677
-37 c10 -10 6 -10 -20 -1 -17 6 -32 13 -32 15 0 8 41 -3 52 -14z m891 11 c-13
-2 -33 -2 -45 0 -13 2 -3 4 22 4 25 0 35 -2 23 -4z m-827 -39 c-5 -14 -9 -14
-22 -3 -14 12 -14 14 3 20 23 8 27 4 19 -17z m206 -27 c35 -30 81 -66 102 -80
43 -29 161 -154 217 -232 48 -65 107 -171 90 -161 -10 7 -12 3 -7 -15 4 -13
-7 3 -24 35 -74 143 -223 312 -383 437 -49 38 -82 69 -74 69 9 0 44 -24 79
-53z m480 12 c9 -5 33 -9 54 -9 21 0 35 -3 32 -6 -9 -9 -188 7 -183 16 3 5 -1
10 -7 13 -7 2 10 2 37 -1 28 -2 58 -9 67 -13z m-597 -50 c3 -4 -8 -3 -25 2
-17 6 -35 20 -40 30 -10 17 -8 17 25 -2 19 -12 37 -25 40 -30z m473 -35 c18
-24 31 -44 29 -44 -1 0 -27 25 -57 56 -38 38 -47 52 -30 44 14 -6 40 -31 58
-56z m-72 25 c19 -22 19 -22 -3 -10 -24 12 -39 31 -25 31 5 0 17 -10 28 -21z
m-21 -89 c3 -5 -1 -10 -9 -10 -9 0 -16 5 -16 10 0 6 4 10 9 10 6 0 13 -4 16
-10z m163 -21 c13 -16 22 -33 20 -38 -2 -5 -15 9 -30 30 -32 45 -24 52 10 8z
m-70 -65 c7 -9 8 -10 0 -4 -7 6 -20 10 -29 10 -10 0 -21 5 -25 11 -9 16 38 1
54 -17z m-647 -17 c54 -69 51 -78 -4 -12 -21 25 -34 45 -30 45 4 0 20 -15 34
-33z m839 -18 c15 -28 5 -23 -15 7 -9 15 -12 23 -6 20 6 -4 16 -16 21 -27z
m-28 -106 c25 -43 53 -93 63 -112 21 -43 48 -131 41 -138 -3 -3 -12 21 -22 53
-9 33 -36 93 -59 134 -23 41 -50 90 -59 108 -30 59 -10 33 36 -45z m-742 32
c14 -19 14 -19 -2 -6 -10 7 -18 18 -18 24 0 6 1 8 3 6 1 -2 9 -13 17 -24z
m569 -124 c-2 -6 -12 4 -22 22 l-18 32 21 -21 c13 -12 21 -27 19 -33z m48 -64
c11 -23 24 -58 28 -76 4 -19 13 -41 20 -47 7 -7 22 -48 33 -91 24 -92 37 -185
24 -164 -13 19 -24 -2 -17 -32 4 -15 1 -28 -10 -37 -15 -13 -16 -10 -8 26 12
58 10 139 -3 137 -7 -1 -11 23 -11 69 0 54 -4 74 -16 83 -9 6 -22 34 -29 61
-7 27 -20 60 -30 73 -19 25 -23 41 -10 41 4 0 17 -19 29 -43z m-50 3 c34 -42
39 -60 17 -60 -20 0 -68 72 -57 84 10 10 17 6 40 -24z m23 -85 c0 -8 9 -19 19
-24 10 -6 24 -25 30 -42 14 -40 14 -48 0 -29 -7 11 -8 6 -4 -19 5 -21 3 -31
-3 -27 -5 3 -12 23 -15 43 -4 21 -16 46 -27 55 -21 18 -28 58 -10 58 6 0 10
-7 10 -15z m-3370 -63 c0 -31 -17 -62 -35 -62 -18 0 -21 71 -4 102 11 21 12
21 25 3 8 -10 14 -30 14 -43z m3552 -44 c6 -24 13 -50 14 -58 2 -8 6 -25 10
-37 3 -13 2 -23 -3 -23 -8 0 -44 127 -43 153 0 19 10 3 22 -35z m-3367 -128
c0 -138 -6 -177 -19 -132 -15 49 0 282 18 282 0 0 1 -67 1 -150z m3272 -45
c-3 -22 -20 30 -31 95 -4 26 -1 21 14 -20 12 -30 19 -64 17 -75z m300 43 c-3
-7 -5 -2 -5 12 0 14 2 19 5 13 2 -7 2 -19 0 -25z m10 -55 c-3 -10 -5 -4 -5 12
0 17 2 24 5 18 2 -7 2 -21 0 -30z m-90 -30 c-3 -10 -5 -4 -5 12 0 17 2 24 5
18 2 -7 2 -21 0 -30z m-3480 -5 c-3 -7 -5 -2 -5 12 0 14 2 19 5 13 2 -7 2 -19
0 -25z m3442 -77 c1 -76 -5 -60 -12 29 -3 44 -2 65 3 50 4 -14 8 -49 9 -79z
m-3429 -7 c0 -8 -4 -13 -9 -10 -5 4 -12 0 -14 -6 -4 -8 -6 -7 -6 4 -1 14 6 21
27 27 1 1 2 -6 2 -15z m-43 -31 c-3 -10 -5 -4 -5 12 0 17 2 24 5 18 2 -7 2
-21 0 -30z m3322 -53 c11 0 13 -71 2 -84 -5 -6 -11 -29 -14 -51 -2 -22 -4 7
-4 65 0 58 1 97 4 88 2 -10 8 -18 12 -18z m-702 -82 c-3 -8 -6 -5 -6 6 -1 11
2 17 5 13 3 -3 4 -12 1 -19z m770 -120 c-3 -7 -5 -2 -5 12 0 14 2 19 5 13 2
-7 2 -19 0 -25z m-501 -97 c-9 -118 -29 -220 -62 -311 -35 -98 -119 -267 -178
-355 -25 -38 -46 -74 -46 -78 0 -19 -63 -98 -74 -94 -12 5 -42 -31 -38 -45 3
-11 -103 -102 -149 -128 -55 -30 -44 -15 23 34 29 21 69 60 88 85 19 25 56 71
81 101 70 83 187 264 225 346 65 142 124 377 124 490 0 24 3 44 6 44 4 0 4
-40 0 -89z m381 -203 c-3 -8 -6 -5 -6 6 -1 11 2 17 5 13 3 -3 4 -12 1 -19z
m-740 -110 c-3 -8 -6 -5 -6 6 -1 11 2 17 5 13 3 -3 4 -12 1 -19z m-177 -298
c-17 -22 -37 -43 -43 -47 -11 -6 4 15 47 65 33 37 30 25 -4 -18z m-534 -432
c-10 -6 -22 -6 -26 -2 -5 5 3 10 18 11 22 1 24 0 8 -9z m-153 -95 c-7 -2 -19
-2 -25 0 -7 3 -2 5 12 5 14 0 19 -2 13 -5z m427 -9 c0 -3 -40 -24 -90 -48 -49
-23 -87 -46 -83 -50 4 -4 0 -4 -9 -1 -9 4 -19 1 -23 -4 -3 -6 -11 -9 -16 -6
-5 4 -9 1 -9 -5 0 -6 -5 -8 -10 -5 -6 4 -17 1 -25 -5 -8 -6 -19 -9 -25 -5 -5
3 -10 1 -10 -5 0 -7 -8 -9 -21 -5 -12 4 -24 3 -28 -3 -4 -6 -22 -7 -46 -2 -33
6 -35 8 -11 9 67 3 216 51 341 111 71 34 65 31 65 24z m-790 -64 c24 -8 24 -8
-7 -9 -17 -1 -35 4 -38 9 -7 11 9 11 45 0z m-170 -70 c19 -5 67 -14 105 -19
l70 -10 -70 5 c-64 4 -190 31 -155 33 8 1 31 -3 50 -9z m303 -27 c-24 -2 -62
-2 -85 0 -24 2 -5 4 42 4 47 0 66 -2 43 -4z m274 1 c-3 -3 -12 -4 -19 -1 -8 3
-5 6 6 6 11 1 17 -2 13 -5z m-59 -11 c-10 -2 -26 -2 -35 0 -10 3 -2 5 17 5 19
0 27 -2 18 -5z m-80 -10 c-10 -2 -26 -2 -35 0 -10 3 -2 5 17 5 19 0 27 -2 18
-5z m-130 -10 c-10 -2 -28 -2 -40 0 -13 2 -5 4 17 4 22 1 32 -1 23 -4z"/>
<path d="M9628 7223 c7 -3 16 -2 19 1 4 3 -2 6 -13 5 -11 0 -14 -3 -6 -6z"/>
<path d="M9770 7190 c34 -11 60 -11 35 0 -11 5 -29 8 -40 8 -16 0 -15 -2 5 -8z"/>
<path d="M10554 7124 c-46 -32 -134 -46 -259 -41 -89 4 -113 2 -95 -6 41 -17
238 -13 288 6 23 9 42 12 42 7 0 -5 -19 -14 -42 -20 -24 -6 -52 -15 -63 -20
-35 -15 24 -12 82 5 66 20 108 52 92 71 -14 17 -18 17 -45 -2z m22 -19 c-23
-17 -36 -19 -36 -6 0 11 18 19 40 20 11 0 10 -3 -4 -14z"/>
<path d="M8696 7055 c-3 -9 -6 -22 -5 -28 0 -7 5 -1 10 12 5 13 8 26 5 28 -2
2 -6 -3 -10 -12z"/>
<path d="M8827 7051 c-4 -17 -3 -21 5 -13 5 5 8 16 6 23 -3 8 -7 3 -11 -10z"/>
<path d="M10685 7050 c-3 -5 -1 -10 4 -10 6 0 11 5 11 10 0 6 -2 10 -4 10 -3
0 -8 -4 -11 -10z"/>
<path d="M8747 7034 c-4 -4 -7 -26 -6 -48 l1 -41 9 39 c10 42 8 62 -4 50z"/>
<path d="M10604 6984 c-18 -14 -18 -15 4 -4 12 6 22 13 22 15 0 8 -5 6 -26
-11z"/>
<path d="M10654 6914 c-18 -14 -18 -15 4 -4 12 6 22 13 22 15 0 8 -5 6 -26
-11z"/>
<path d="M10610 6885 c-7 -9 -8 -15 -2 -15 5 0 12 7 16 15 3 8 4 15 2 15 -2 0
-9 -7 -16 -15z"/>
<path d="M8800 6864 c0 -14 4 -23 9 -20 5 3 7 15 4 26 -7 28 -13 25 -13 -6z"/>
<path d="M8762 6855 c-7 -8 -8 -15 -3 -15 5 0 12 -19 14 -42 3 -37 4 -35 5 15
1 31 1 57 0 57 -2 -1 -9 -7 -16 -15z"/>
<path d="M8678 6720 c2 -16 6 -30 8 -30 2 0 4 14 4 30 0 17 -4 30 -8 30 -5 0
-7 -13 -4 -30z"/>
<path d="M9395 6640 c-3 -6 1 -7 9 -4 18 7 21 14 7 14 -6 0 -13 -4 -16 -10z"/>
<path d="M8690 6620 c0 -5 5 -10 10 -10 6 0 10 5 10 10 0 6 -4 10 -10 10 -5 0
-10 -4 -10 -10z"/>
<path d="M9637 6604 c5 -13 3 -15 -7 -9 -9 5 -11 4 -6 -3 4 -7 11 -12 17 -12
12 0 12 27 -1 35 -6 4 -7 -1 -3 -11z"/>
<path d="M9660 6600 c0 -5 7 -7 15 -4 8 4 15 2 15 -3 0 -5 17 -9 38 -10 l37
-1 -35 13 c-43 16 -70 18 -70 5z"/>
<path d="M11053 6503 c9 -2 25 -2 35 0 9 3 1 5 -18 5 -19 0 -27 -2 -17 -5z"/>
<path d="M11825 6490 c-16 -7 -17 -9 -3 -9 9 -1 20 4 23 9 7 11 7 11 -20 0z"/>
<path d="M11220 6451 c8 -5 33 -5 55 -1 40 8 40 8 -15 9 -35 0 -50 -3 -40 -8z"/>
<path d="M11621 6429 c-52 -16 -97 -31 -99 -34 -11 -11 55 -3 93 11 22 8 48
17 59 19 10 2 23 8 30 14 6 5 20 11 31 14 l20 5 -20 0 c-11 0 -62 -13 -114
-29z"/>
<path d="M11118 6433 c7 -3 16 -2 19 1 4 3 -2 6 -13 5 -11 0 -14 -3 -6 -6z"/>
<path d="M11491 6424 c-85 -15 -92 -19 -55 -28 15 -4 30 -3 33 2 3 5 32 15 64
22 31 6 57 13 57 16 0 6 -13 4 -99 -12z"/>
<path d="M11048 6413 c7 -3 16 -2 19 1 4 3 -2 6 -13 5 -11 0 -14 -3 -6 -6z"/>
<path d="M11109 6347 c16 -16 94 -20 114 -5 15 11 8 13 -53 14 -45 0 -67 -3
-61 -9z"/>
<path d="M10718 6015 c6 -11 19 -29 30 -41 11 -12 30 -40 41 -62 20 -40 41
-62 41 -44 0 15 -76 125 -101 147 -22 20 -22 20 -11 0z"/>
<path d="M11311 5364 c0 -11 3 -14 6 -6 3 7 2 16 -1 19 -3 4 -6 -2 -5 -13z"/>
<path d="M7820 5235 c0 -14 2 -25 4 -25 2 0 6 11 8 25 3 14 1 25 -3 25 -5 0
-9 -11 -9 -25z"/>
<path d="M10651 5124 c0 -11 3 -14 6 -6 3 7 2 16 -1 19 -3 4 -6 -2 -5 -13z"/>
<path d="M11303 5117 c1 -15 5 -27 10 -27 10 0 9 22 -2 39 -7 10 -9 7 -8 -12z"/>
<path d="M11111 5084 c0 -11 3 -14 6 -6 3 7 2 16 -1 19 -3 4 -6 -2 -5 -13z"/>
<path d="M11032 5014 c-15 -50 -15 -94 -1 -114 8 -12 10 -12 8 5 -1 11 1 41 5
66 11 67 4 94 -12 43z"/>
<path d="M11185 5040 c-3 -5 -1 -10 4 -10 6 0 11 5 11 10 0 6 -2 10 -4 10 -3
0 -8 -4 -11 -10z"/>
<path d="M7575 4850 c13 -245 43 -425 65 -390 6 9 10 6 15 -11 4 -13 25 -59
46 -102 21 -43 38 -81 37 -85 -3 -14 15 -68 30 -87 14 -19 14 -19 7 5 -4 14
-7 36 -7 49 0 19 -2 21 -10 10 -8 -11 -9 -10 -4 4 3 10 1 27 -4 38 -6 10 -8
19 -6 19 3 0 15 -19 27 -42 12 -24 35 -62 51 -85 24 -36 27 -46 17 -64 -6 -13
-7 -19 -1 -15 6 3 20 -9 31 -28 22 -35 64 -76 46 -46 -4 8 -18 29 -30 45 -34
47 -39 64 -8 25 114 -141 187 -213 296 -294 66 -50 39 -20 -58 64 -207 180
-373 426 -424 629 -11 46 -28 92 -36 101 -19 21 -55 159 -59 230 -3 30 -9 71
-15 90 -9 29 -10 17 -6 -60z"/>
<path d="M7521 4894 c0 -11 3 -14 6 -6 3 7 2 16 -1 19 -3 4 -6 -2 -5 -13z"/>
<path d="M11137 4883 c-3 -5 -1 -17 4 -28 7 -17 8 -17 8 8 1 27 -4 34 -12 20z"/>
<path d="M10996 4863 c-6 -14 -5 -15 5 -6 7 7 10 15 7 18 -3 3 -9 -2 -12 -12z"/>
<path d="M11132 4765 c0 -16 2 -22 5 -12 2 9 2 23 0 30 -3 6 -5 -1 -5 -18z"/>
<path d="M7661 4760 c0 -8 4 -24 9 -35 5 -13 9 -14 9 -5 0 8 -4 24 -9 35 -5
13 -9 14 -9 5z"/>
<path d="M11041 4702 c0 -7 -5 -11 -10 -7 -18 10 -21 -32 -5 -61 l16 -29 -6
27 c-4 15 -1 28 5 30 6 2 9 15 6 28 -2 14 -5 19 -6 12z"/>
<path d="M11061 4634 c0 -11 3 -14 6 -6 3 7 2 16 -1 19 -3 4 -6 -2 -5 -13z"/>
<path d="M10976 4558 c-9 -24 -18 -57 -20 -73 -2 -17 -4 -34 -5 -38 0 -5 -5
-5 -11 -2 -6 4 -7 -5 -4 -23 3 -16 1 -40 -6 -53 -11 -23 -10 -23 4 -5 9 11 16
28 16 38 0 11 6 31 14 46 15 28 39 142 32 149 -2 2 -11 -15 -20 -39z"/>
<path d="M11006 4539 c-9 -34 -15 -63 -13 -66 2 -2 12 24 21 58 10 33 16 63
13 65 -2 2 -11 -24 -21 -57z"/>
<path d="M10576 4523 c-6 -14 -5 -15 5 -6 7 7 10 15 7 18 -3 3 -9 -2 -12 -12z"/>
<path d="M7760 4394 c0 -3 11 -22 25 -42 30 -45 33 -37 4 12 -20 34 -29 43
-29 30z"/>
<path d="M7940 4351 c0 -6 4 -13 10 -16 6 -3 7 1 4 9 -7 18 -14 21 -14 7z"/>
<path d="M7980 4286 c0 -2 8 -10 18 -17 15 -13 16 -12 3 4 -13 16 -21 21 -21
13z"/>
<path d="M8010 4246 c0 -2 7 -7 16 -10 8 -3 12 -2 9 4 -6 10 -25 14 -25 6z"/>
<path d="M8071 4223 c7 -10 24 -31 38 -46 22 -23 23 -29 11 -37 -12 -7 -12
-12 -2 -22 9 -9 12 -9 12 5 0 26 12 21 60 -28 54 -56 230 -179 230 -162 0 3
-35 31 -77 63 -43 32 -121 100 -174 151 -88 86 -130 118 -98 76z"/>
<path d="M8040 4206 c0 -2 7 -7 16 -10 8 -3 12 -2 9 4 -6 10 -25 14 -25 6z"/>
<path d="M10365 4199 c-11 -17 1 -21 15 -4 8 9 8 15 2 15 -6 0 -14 -5 -17 -11z"/>
<path d="M9834 4178 l-19 -23 23 19 c12 11 22 21 22 23 0 8 -8 2 -26 -19z"/>
<path d="M8015 4070 c10 -11 20 -20 23 -20 3 0 -3 9 -13 20 -10 11 -20 20 -23
20 -3 0 3 -9 13 -20z"/>
<path d="M9689 4073 c-13 -15 -12 -15 9 -4 23 12 28 21 13 21 -5 0 -15 -7 -22
-17z"/>
<path d="M7960 3963 c0 -5 16 -27 35 -49 19 -21 34 -34 34 -29 0 6 -15 28 -34
49 -19 22 -35 35 -35 29z"/>
<path d="M10159 3943 c-13 -16 -12 -17 4 -4 16 13 21 21 13 21 -2 0 -10 -8
-17 -17z"/>
<path d="M10145 3890 c-16 -16 -24 -30 -19 -30 6 0 23 14 39 30 16 17 24 30
19 30 -6 0 -23 -13 -39 -30z"/>
<path d="M8490 3887 c0 -3 27 -15 60 -27 33 -12 57 -26 54 -31 -3 -5 3 -6 13
-2 14 5 7 12 -32 29 -57 25 -95 37 -95 31z"/>
<path d="M8522 3834 c9 -9 21 -15 27 -13 6 2 -2 10 -17 17 -25 11 -25 11 -10
-4z"/>
<path d="M9160 3840 c0 -5 5 -10 11 -10 5 0 7 5 4 10 -3 6 -8 10 -11 10 -2 0
-4 -4 -4 -10z"/>
<path d="M8595 3800 c4 -6 11 -8 16 -5 14 9 11 15 -7 15 -8 0 -12 -5 -9 -10z"/>
<path d="M8650 3786 c0 -2 7 -6 15 -10 8 -3 15 -1 15 4 0 6 -7 10 -15 10 -8 0
-15 -2 -15 -4z"/>
<path d="M9974 3755 c-10 -8 -14 -15 -8 -15 6 0 17 7 24 15 16 19 9 19 -16 0z"/>
<path d="M8325 3750 c3 -5 11 -10 16 -10 6 0 7 5 4 10 -3 6 -11 10 -16 10 -6
0 -7 -4 -4 -10z"/>
<path d="M8240 3712 c0 -15 38 -35 53 -28 8 3 7 5 -2 5 -8 1 -23 8 -33 18 -10
9 -18 11 -18 5z"/>
<path d="M8400 3655 c25 -13 50 -24 55 -24 6 0 -10 11 -35 24 -25 13 -49 24
-55 24 -5 0 10 -11 35 -24z"/>
<path d="M9713 3613 c-35 -15 -61 -28 -59 -30 5 -5 107 36 121 49 13 12 7 10
-62 -19z"/>
<path d="M8716 3591 c5 -5 25 -12 44 -15 l35 -6 -35 14 c-42 17 -58 20 -44 7z"/>
<path d="M8614 3566 c33 -14 62 -23 65 -21 5 6 -55 32 -95 40 -16 3 -2 -5 30
-19z"/>
<path d="M8820 3559 c0 -5 5 -7 10 -4 6 3 10 8 10 11 0 2 -4 4 -10 4 -5 0 -10
-5 -10 -11z"/>
<path d="M9368 3553 c7 -3 16 -2 19 1 4 3 -2 6 -13 5 -11 0 -14 -3 -6 -6z"/>
<path d="M9280 3540 c0 -5 5 -10 11 -10 5 0 7 5 4 10 -3 6 -8 10 -11 10 -2 0
-4 -4 -4 -10z"/>
<path d="M8770 3521 c18 -11 157 -31 203 -30 18 1 -13 7 -68 15 -55 7 -111 16
-125 19 -18 4 -21 3 -10 -4z"/>
<path d="M8748 3493 c7 -3 16 -2 19 1 4 3 -2 6 -13 5 -11 0 -14 -3 -6 -6z"/>
<path d="M9238 3493 c6 -2 18 -2 25 0 6 3 1 5 -13 5 -14 0 -19 -2 -12 -5z"/>
<path d="M9183 3483 c9 -2 23 -2 30 0 6 3 -1 5 -18 5 -16 0 -22 -2 -12 -5z"/>
<path d="M9020 3460 c14 -4 41 -8 60 -8 l35 0 -40 9 c-22 4 -49 8 -60 7 -16 0
-15 -2 5 -8z"/>
<path d="M9223 3463 c9 -2 23 -2 30 0 6 3 -1 5 -18 5 -16 0 -22 -2 -12 -5z"/>
</g>
</svg>
